<svg xmlns="http://www.w3.org/2000/svg" width="400" height="400" fill="none" viewBox="0 0 400 400"><line x1="382" x2="361.09" y1="94.2" y2="94.2" fill="none" stroke="#E8EAED" stroke-linecap="round" stroke-miterlimit="10" stroke-width="6"/><line x1="364.25" x2="346.66" y1="33.77" y2="45.07" fill="none" stroke="#E8EAED" stroke-linecap="round" stroke-miterlimit="10" stroke-width="6"/><line x1="197.01" x2="210.71" y1="9.74" y2="25.54" fill="none" stroke="#E8EAED" stroke-linecap="round" stroke-miterlimit="10" stroke-width="6"/><line x1="162.97" x2="183.03" y1="62.74" y2="68.62" fill="none" stroke="#E8EAED" stroke-linecap="round" stroke-miterlimit="10" stroke-width="6"/><line x1="162.98" x2="183.04" y1="125.72" y2="119.83" fill="none" stroke="#E8EAED" stroke-linecap="round" stroke-miterlimit="10" stroke-width="6"/><line x1="316.7" x2="308.01" y1="195.86" y2="176.84" fill="none" stroke="#E8EAED" stroke-linecap="round" stroke-miterlimit="10" stroke-width="6"/><line x1="364.28" x2="346.69" y1="154.59" y2="143.29" fill="none" stroke="#E8EAED" stroke-linecap="round" stroke-miterlimit="10" stroke-width="6"/><ellipse cx="154.11" cy="381.74" fill="#F1F3F4" rx="103.5" ry="8.26"/><path fill="none" stroke="#FBBC04" stroke-linejoin="round" stroke-width="9" d="M166.37,181.8c54.51-10.47,66-55.59,28.92-92.64"/><path fill="none" stroke="#F29900" stroke-linejoin="round" stroke-width="9" d="M148.8,254.55l16.54,51.35a90,90,0,0,1,2,47.76l-6.46,28.08h23"/><path fill="none" stroke="#F29900" stroke-linejoin="round" stroke-width="9" d="M125.3,261.45l8.46,34.92a89.84,89.84,0,0,1-.27,43.48l-10.68,41.83,20,.17"/><line x1="148.8" x2="158.33" y1="254.55" y2="284.15" fill="none" stroke="#EA8600" stroke-linejoin="round" stroke-width="9"/><line x1="128.39" x2="132.8" y1="274.19" y2="291.71" fill="none" stroke="#EA8600" stroke-linejoin="round" stroke-width="9"/><polygon fill="#F9AB00" points="165.19 159.52 130.41 58.66 29.56 93.45 64.34 194.3 99.13 295.15 199.98 260.37 165.19 159.52"/><path fill="none" stroke="#FFF" stroke-miterlimit="10" stroke-width="6" d="M71.7,138.64c16.69,24.27,52.79,17.16,59.56-16.13"/><path fill="none" stroke="#FFF" stroke-miterlimit="10" stroke-width="6" d="M75.78,131.55A17.14,17.14,0,0,1,71.91,138a28,28,0,0,1-7.23,4.93"/><line x1="269.28" x2="244.62" y1="98.8" y2="190.46" fill="none" stroke="#BDC1C6" stroke-miterlimit="10" stroke-width="20"/><path fill="none" stroke="#BDC1C6" stroke-miterlimit="10" stroke-width="6" d="M197.37,113.58a11.4,11.4,0,1,0,1.41-22.31,38.5,38.5,0,0,1-8.49-.63,22.81,22.81,0,1,1,28-16.1"/><path fill="none" stroke="#BDC1C6" stroke-miterlimit="10" stroke-width="6" d="M324.07,147.67a11.4,11.4,0,1,1,10-20s4.61,2.89,7.65,3.71a22.8,22.8,0,1,0-16.09-27.95"/><path fill="#DADCE0" d="M253.5,157.45c37.27,10,80.69-30.92,97-91.47l-135-36.32C199.23,90.21,216.23,147.42,253.5,157.45Z"/><path fill="none" stroke="#F1F3F4" stroke-miterlimit="10" stroke-width="6" d="M224,109.65c-5.87-19.74-6.24-43.45-1.16-67.66"/><path fill="none" stroke="#F1F3F4" stroke-miterlimit="10" stroke-width="6" d="M241.18,139.46a54.17,54.17,0,0,1-11.61-15.67"/><path fill="#DADCE0" d="M248,177.83c-13.07-3.52-26,2.23-28.83,12.84L266.5,203.4C269.36,192.79,261.08,181.34,248,177.83Z"/><path fill="none" stroke="#BDC1C6" stroke-miterlimit="10" stroke-width="6" d="M266,110.86l-17.44,3.92a2.18,2.18,0,0,1-2.46-3l7.5-16.23-9.12-15.37a2.19,2.19,0,0,1,2.14-3.28L264.4,79l11.8-13.42a2.18,2.18,0,0,1,3.78,1l3.48,17.53,16.41,7.08a2.18,2.18,0,0,1,.2,3.91l-15.6,8.72-1.66,17.79a2.18,2.18,0,0,1-3.66,1.4Z"/><path fill="none" stroke="#FCC934" stroke-linejoin="round" stroke-width="9" d="M74.48,209.27c74.32,45.28,152.4-1.07,170.14-18.81"/><path fill="none" stroke="#FCC934" stroke-linejoin="round" stroke-width="9" d="M87.61,216.33a129.71,129.71,0,0,0,13.13,5.3"/><path fill="none" stroke="#FBBC04" stroke-linejoin="round" stroke-width="9" d="M74.48,209.27a136.76,136.76,0,0,0,13.13,7.06"/></svg>