<svg xmlns="http://www.w3.org/2000/svg" width="570" height="336" fill="none" viewBox="0 0 570 336"><path fill="none" stroke="#4285F4" stroke-linejoin="round" stroke-width="7" d="M170.78,167.21c11.36-5.5,21.2,1.59,22.73,7"/><ellipse cx="292.73" cy="307.44" fill="#F1F3F4" rx="252.51" ry="10.01"/><path fill="none" stroke="#4285F4" stroke-linejoin="round" stroke-width="7" d="M93.23,212.44c-6,6.78-17,9.12-25.62,8.24-14.77-1.52-23-11-28.38-24"/><path fill="none" stroke="#1A73E8" stroke-linejoin="round" stroke-width="7" d="M93.23,212.44a24.66,24.66,0,0,1-11.81,7"/><path fill="none" stroke="#1967D2" stroke-linejoin="round" stroke-width="7" d="M125.33,206.44,112.12,242a60,60,0,0,0,.12,42.15l11.09,21.34H109.11"/><line x1="125.33" x2="115.78" y1="206.44" y2="232.11" fill="none" stroke="#1967D2" stroke-linejoin="round" stroke-width="7"/><polyline fill="none" stroke="#1967D2" stroke-linejoin="round" stroke-width="7" points="146.34 216.44 146.34 305.44 159.57 305.44"/><path fill="none" stroke="#1967D2" stroke-linejoin="round" stroke-width="7" d="M125.33,206.44a72.1,72.1,0,0,0-5.25,13.5"/><line x1="146.34" x2="146.34" y1="216.44" y2="223.44" fill="none" stroke="#1967D2" stroke-linejoin="round" stroke-width="7"/><path fill="#1A73E8" d="M142.65,219.64a61.5,61.5,0,0,1-80.49-33l113.46-47.52A61.51,61.51,0,0,1,142.65,219.64Z"/><path fill="none" stroke="#FFF" stroke-miterlimit="10" stroke-width="5" d="M146.93,202c7.74-4.34,12.25-12.92,12.66-22.39l-43.54,17.79"/><path fill="none" stroke="#FBBC04" stroke-linejoin="round" stroke-width="7" d="M385.07,137.93c18,7.48,43.08,2.83,56-12.14,11.22-13,11.51-31.12,6.34-46.75"/><path fill="none" stroke="#FBBC04" stroke-linejoin="round" stroke-width="7" d="M322.39,152.05c-24.41,12-41.12,72.46-24.79,98"/><path fill="none" stroke="#FBBC04" stroke-linejoin="round" stroke-width="7" d="M365.34,177.13c2.77,13.29,5.23,29.83,9.9,45.42"/><path fill="none" stroke="#F29900" stroke-linejoin="round" stroke-width="7" d="M366,239.9l3.21,28.92a29.93,29.93,0,0,1-3.14,17L356,305.44h14.22"/><polyline fill="none" stroke="#F29900" stroke-linejoin="round" stroke-width="7" points="341.55 234.9 341.55 305.44 328.32 305.44"/><line x1="366.02" x2="367.18" y1="239.9" y2="250.34" fill="none" stroke="#EA8600" stroke-linejoin="round" stroke-width="7"/><line x1="341.55" x2="341.55" y1="234.9" y2="250.34" fill="none" stroke="#EA8600" stroke-linejoin="round" stroke-width="7"/><polygon fill="#F9AB00" points="396.25 159.92 399.43 77.98 317.49 74.81 314.31 156.75 311.13 238.69 393.08 241.87 396.25 159.92"/><path fill="none" stroke="#FFF" stroke-miterlimit="10" stroke-width="5" d="M335.08,118.92c5,15.13,20.44,24.7,38.06,14.51"/><path fill="none" stroke="#FFF" stroke-miterlimit="10" stroke-width="5" d="M340,115c-2.94,3.32-5.56,4.45-11.13,5.07"/><path fill="none" stroke="#34A853" stroke-linejoin="round" stroke-width="7" d="M326.51,226.26c9.21,1.09,46.63,9.81,36.62-24"/><path fill="none" stroke="#188038" stroke-linejoin="round" stroke-width="7" d="M255.19,243.91c-1.95,22.25-1.06,43.25,6,61.53H277"/><path fill="none" stroke="#188038" stroke-linejoin="round" stroke-width="7" d="M227.09,243.91c-2,21.75-.54,42.43,6,61.53H218.47"/><path fill="none" stroke="#137333" stroke-linejoin="round" stroke-width="7" d="M255.19,243.91a212.54,212.54,0,0,0-.86,22.78"/><path fill="none" stroke="#137333" stroke-linejoin="round" stroke-width="7" d="M227.09,243.91q-.75,8.16-.82,16.11"/><path fill="none" stroke="#4285F4" stroke-linecap="round" stroke-linejoin="round" stroke-width="7" d="M193.58,180c-2.07,8.2-14.68,10.84-20.68,15.6-1.52,1.21-3.64,2.28-4.66,4a5,5,0,0,0-.6,1.84"/><path fill="none" stroke="#34A853" stroke-linejoin="round" stroke-width="7" d="M163.46,270.46c-9.77-6.25-16-20.14-13.11-31.58,2.53-9.9,14-22.34,23.45-25.13"/><polygon fill="#1E8E3E" points="256.35 176.56 174.84 167.6 165.88 249.12 247.39 258.08 328.91 267.04 337.87 185.53 256.35 176.56"/><path fill="none" stroke="#FFF" stroke-miterlimit="10" stroke-width="5" d="M221.29,221.77C234.34,238,260,245,280.76,228.31"/><path fill="none" stroke="#E94235" stroke-linejoin="round" stroke-width="7" d="M486.65,220.21C504,231,522.5,249.9,535.85,213.92"/><path fill="none" stroke="#D93025" stroke-linejoin="round" stroke-width="7" d="M486.65,220.21c4.33,2.7,8.74,5.9,13.12,8.63"/><path fill="none" stroke="#E94235" stroke-linejoin="round" stroke-width="7" d="M392.08,212.43c2.38,17.25,3.91,37.24,0,54.26"/><path fill="none" stroke="#D93025" stroke-linejoin="round" stroke-width="7" d="M392.08,212.43c1,7.16,1.82,14.78,2.19,22.47"/><polyline fill="none" stroke="#C5221F" stroke-linejoin="round" stroke-width="7" points="430.17 218.39 421.63 305.44 399.33 305.44"/><polyline fill="none" stroke="#C5221F" stroke-linejoin="round" stroke-width="7" points="469.93 218.39 461.39 305.44 482.13 305.44"/><line x1="430.17" x2="426.5" y1="218.39" y2="255.77" fill="none" stroke="#B31412" stroke-linejoin="round" stroke-width="7"/><line x1="469.93" x2="466.6" y1="218.39" y2="252.34" fill="none" stroke="#B31412" stroke-linejoin="round" stroke-width="7"/><circle cx="444.5" cy="188.84" r="61.5" fill="#D93025"/><path fill="none" stroke="#FFF" stroke-miterlimit="10" stroke-width="5" d="M464.88,219.51c-9.5,12.78-27.2,17-40.68,1.74"/><path fill="none" stroke="#FFF" stroke-miterlimit="10" stroke-width="5" d="M430.17,219.55c-4.42-.27-7.08.79-11.45,4.29"/><path d="M167.64,201.39a8.07,8.07,0,0,0,2.46,7.06c3.38,3,10.33,1.86,12-2.55"/><path fill="#80868B" d="M517.93,197.07l-.44,2.26a3,3,0,0,0,.93,2.81l4.27,3.85a6,6,0,0,1,1.53,6.75l-4.56,11.07a20.08,20.08,0,0,0-1.5,8.14l.31,12.64a2,2,0,0,0,1.62,1.91l2.75.54a2,2,0,0,0,2.22-1.16l5.06-11.58a20,20,0,0,0,1.68-8.11l0-12a6,6,0,0,1,4-5.68l5.4-1.95a3,3,0,0,0,1.93-2.25l.44-2.26Z"/><rect width="26.05" height="14.03" x="519.03" y="185.68" fill="#DADCE0" transform="translate(46.97 -98.7) rotate(11.08)"/><line x1="520.05" x2="545.61" y1="186.25" y2="191.26" fill="none" stroke="#BDC1C6" stroke-miterlimit="10" stroke-width=".44"/><line x1="518.51" x2="544.07" y1="194.12" y2="199.13" fill="none" stroke="#BDC1C6" stroke-miterlimit="10" stroke-width=".44"/><path fill="#5F6368" d="M523.09,164H548a.59.59,0,0,1,.59.59V186a0,0,0,0,1,0,0H522.5a0,0,0,0,1,0,0V164.56a.59.59,0,0,1,.59-.59Z" transform="translate(43.64 -99.7) rotate(11.08)"/><line x1="523.58" x2="527.81" y1="183.88" y2="162.25" fill="none" stroke="#BDC1C6" stroke-miterlimit="10" stroke-width=".44"/><line x1="527.51" x2="531.75" y1="184.65" y2="163.02" fill="none" stroke="#BDC1C6" stroke-miterlimit="10" stroke-width=".44"/><line x1="531.44" x2="535.68" y1="185.42" y2="163.79" fill="none" stroke="#BDC1C6" stroke-miterlimit="10" stroke-width=".44"/><line x1="535.37" x2="539.61" y1="186.19" y2="164.56" fill="none" stroke="#BDC1C6" stroke-miterlimit="10" stroke-width=".44"/><line x1="539.31" x2="543.55" y1="186.96" y2="165.33" fill="none" stroke="#BDC1C6" stroke-miterlimit="10" stroke-width=".44"/><line x1="543.24" x2="547.48" y1="187.73" y2="166.1" fill="none" stroke="#BDC1C6" stroke-miterlimit="10" stroke-width=".44"/><path fill="#24C1E0" d="M549.45,166.49l-23.6-4.63a1,1,0,0,0-1.18.79l-1.35,6.89,2.56,9.24a3,3,0,0,0,4.38,1.82l8.63-4.89a6,6,0,0,1,7.33,1.1l1.84,1.95,2.18-11.1A1,1,0,0,0,549.45,166.49Z"/><path fill="#BDC1C6" d="M91.3,137.33,77.09,125.86l-57,70.65a9.12,9.12,0,0,0,1.38,12.84h0A9.12,9.12,0,0,0,34.33,208Zm-60.91,61a5,5,0,1,1-7.09.76A5,5,0,0,1,30.39,198.31Z"/><path fill="#DADCE0" d="M83.68,117.3l15.58,9.54,10-16.37a22.82,22.82,0,1,1-15.38-9.85Z"/><polygon fill="#DADCE0" points="81.24 122.25 75.23 127.87 91.48 137.82 97.42 132.17 81.24 122.25"/><polygon fill="#F8F9FA" points="95.68 131.1 89.67 136.71 91.42 137.78 97.42 132.17 95.68 131.1"/><polygon fill="#F8F9FA" points="92.07 128.89 86.06 134.5 87.81 135.57 93.81 129.96 92.07 128.89"/><polygon fill="#F8F9FA" points="88.46 126.67 82.45 132.29 84.2 133.36 90.2 127.74 88.46 126.67"/><polygon fill="#F8F9FA" points="84.85 124.46 78.84 130.08 80.59 131.15 86.59 125.53 84.85 124.46"/><polygon fill="#F8F9FA" points="81.24 122.25 75.23 127.87 76.98 128.94 82.98 123.32 81.24 122.25"/><polygon fill="#BDC1C6" points="466.08 97.09 461.17 99.63 427.6 28.96 432.51 26.42 466.08 97.09"/><polygon fill="#DADCE0" points="437.63 33.71 430.06 37.63 424.44 21.95 429.07 19.55 437.63 33.71"/><path d="M466.83,105.11h0A7.34,7.34,0,0,1,456.69,102l-15.25-32.1,13.88-7.18,15.24,32.1A8,8,0,0,1,466.83,105.11Z"/><path fill="#5F6368" d="M464.56,100.33h0A4,4,0,0,1,459,98.6L444.59,68.22l7.58-3.92L466.6,94.68A4.35,4.35,0,0,1,464.56,100.33Z"/><rect width="61.38" height="12.69" x="142.69" y="257.09" fill="#BDC1C6" transform="translate(-127.38 168.57) rotate(-39.14)"/><rect width="5.27" height="12.69" x="192.5" y="239.38" fill="#9AA0A6" transform="translate(-111.32 178.33) rotate(-39.14)"/><rect width="12.9" height="9.56" x="205.54" y="244.6" fill="#BDC1C6" transform="translate(271.58 -72.46) rotate(50.86)"/><rect width="16.52" height="9.9" x="209.99" y="252.12" fill="#DADCE0" rx="1.53" transform="translate(549.8 318.67) rotate(140.86)"/><path fill="#DADCE0" d="M175.87,220.73c4.56-.39,13.4-.24,24.73,4.4a14.61,14.61,0,0,1,5.8,4.3l9,11.11a1.53,1.53,0,0,1-.22,2.16l-10.44,8.5a1.53,1.53,0,0,1-2.15-.23l-8-9.81A44.24,44.24,0,0,1,189.9,234c-1.21-2.28-4.66-6.23-14.42-11.22A1.06,1.06,0,0,1,175.87,220.73Z"/><rect width="3.47" height="74.9" x="158.98" y="236.29" fill="#BDC1C6" rx="1.73" transform="translate(271.56 -23.71) rotate(50.86)"/><path fill="#5F6368" d="M166.85,260.56l-38.79,31.57a6.34,6.34,0,0,0,8,9.84l38.79-31.57Z"/><path fill="none" stroke="#34A853" stroke-linejoin="round" stroke-width="7" d="M163.46,270.46c-9.77-6.25-16-20.14-13.11-31.58"/></svg>